<?xml version="1.0" encoding="UTF-8" standalone="no"?>
<svg width="512" height="512" viewBox="0 0 512 512" fill="none" xmlns="http://www.w3.org/2000/svg">
  <!-- Quantum Glow Effect -->
  <defs>
    <filter id="glow" x="-50%" y="-50%" width="200%" height="200%">
      <feGaussianBlur stdDeviation="10" result="blur" />
      <feComposite in="SourceGraphic" in2="blur" operator="over" />
    </filter>
    
    <linearGradient id="orbitalGradient" x1="0%" y1="0%" x2="100%" y2="100%">
      <stop offset="0%" stop-color="#0090FF" />
      <stop offset="100%" stop-color="#0062CC" />
    </linearGradient>
    
    <linearGradient id="goldGradient" x1="0%" y1="0%" x2="100%" y2="100%">
      <stop offset="0%" stop-color="#FFD700" />
      <stop offset="100%" stop-color="#FFA500" />
    </linearGradient>

    <linearGradient id="coreGradient" x1="0%" y1="0%" x2="100%" y2="100%">
      <stop offset="0%" stop-color="#001F3F" />
      <stop offset="100%" stop-color="#0062CC" />
    </linearGradient>
  </defs>

  <!-- Background Quantum Field -->
  <circle cx="256" cy="256" r="200" fill="url(#coreGradient)" opacity="0.7" />
  <circle cx="256" cy="256" r="200" fill="none" stroke="#0090FF" stroke-width="2" stroke-dasharray="4,4" opacity="0.5" />

  <!-- Orbital Rings -->
  <g filter="url(#glow)">
    <ellipse cx="256" cy="256" rx="180" ry="100" fill="none" stroke="url(#orbitalGradient)" stroke-width="3" transform="rotate(30 256 256)" />
    <ellipse cx="256" cy="256" rx="170" ry="90" fill="none" stroke="url(#orbitalGradient)" stroke-width="2" transform="rotate(60 256 256)" />
    <ellipse cx="256" cy="256" rx="160" ry="80" fill="none" stroke="url(#orbitalGradient)" stroke-width="1" transform="rotate(90 256 256)" />
  </g>

  <!-- Shield/Hexagon Core -->
  <path d="M256 86L345 134V230L256 278L167 230V134L256 86Z" fill="#001F3F" stroke="url(#goldGradient)" stroke-width="4" />
  
  <!-- Quantum Particles -->
  <circle cx="256" cy="154" r="12" fill="url(#goldGradient)" filter="url(#glow)" />
  <circle cx="310" cy="230" r="8" fill="#0090FF" filter="url(#glow)" />
  <circle cx="202" cy="230" r="8" fill="#0090FF" filter="url(#glow)" />
  
  <!-- Connecting Lines -->
  <line x1="256" y1="154" x2="310" y2="230" stroke="#0090FF" stroke-width="2" stroke-dasharray="4,4" />
  <line x1="256" y1="154" x2="202" y2="230" stroke="#0090FF" stroke-width="2" stroke-dasharray="4,4" />
  <line x1="202" y1="230" x2="310" y2="230" stroke="#0090FF" stroke-width="2" stroke-dasharray="4,4" />
  
  <!-- A Letter Stylized -->
  <path d="M225 360H287L300 390H320L265 280H247L192 390H212L225 360Z" fill="url(#goldGradient)" filter="url(#glow)" />
  <path d="M256 330L274 360H238L256 330Z" fill="#001F3F" />
  
  <!-- AXION Text -->
  <text x="256" y="430" font-family="Arial, sans-serif" font-size="42" font-weight="bold" text-anchor="middle" fill="url(#goldGradient)">AXION</text>
</svg> 